<svg id="Capa_1" data-name="Capa 1" xmlns="http://www.w3.org/2000/svg" viewBox="0 0 457.48 458.98"><defs><style>.cls-1{fill:#f2d81d;}.cls-2{fill:#385e8c;}</style></defs><title>moneda</title><circle class="cls-1" cx="228.74" cy="229.49" r="208.56"/><path class="cls-2" d="M359.86,149.23l-.5,193.52H332L331.95,207,283.2,253.38l-31.37-21.86-71-47.61L177.31,182V150.12a59.88,59.88,0,0,1,19.23-22.63V105.84h20.89v12.29a60.3,60.3,0,0,1,13.35-1.49,58.85,58.85,0,0,1,10.11.87V105.84h20.89v19.54a60,60,0,0,1,19.84,19.94v31.15H253.7v-.92a25.29,25.29,0,0,0-23.19-35.27,25.28,25.28,0,0,0-25.29,25.29v6.48l.77.52,26,18.18,40,27.91,8.58,6,51.32-48.87Z"/><path class="cls-2" d="M281.62,273.41V305.3a59.47,59.47,0,0,1-19.84,23v21.5H240.89V337.4a59.29,59.29,0,0,1-23.46.39v12H196.54V329.65a59.8,59.8,0,0,1-19.23-19.56V278.95h27.91v.92a25.2,25.2,0,0,0,0,20,25.26,25.26,0,0,0,48.48-10v-6.48l-.77-.52-26-18.18-40-27.91-8.58-6L127,198.42l.24,144.34H98.54L99,146.27l79.09,57.38v0l29,20.22,71,47.61Z"/></svg>